<?xml version="1.0" encoding="UTF-8"?>
<!DOCTYPE svg PUBLIC "-//W3C//DTD SVG 1.1//EN" "http://www.w3.org/Graphics/SVG/1.1/DTD/svg11.dtd">
<svg xmlns="http://www.w3.org/2000/svg" version="1.1" width="150px" height="150px" style="shape-rendering:geometricPrecision; text-rendering:geometricPrecision; image-rendering:optimizeQuality; fill-rule:evenodd; clip-rule:evenodd" xmlns:xlink="http://www.w3.org/1999/xlink">
<g><path style="opacity:1" fill="#936427" d="M 74.5,-0.5 C 77.8333,-0.5 81.1667,-0.5 84.5,-0.5C 84.5,5.83333 84.5,12.1667 84.5,18.5C 81.1667,18.5 77.8333,18.5 74.5,18.5C 74.5,12.1667 74.5,5.83333 74.5,-0.5 Z"/></g>
<g><path style="opacity:1" fill="#936427" d="M 74.5,18.5 C 74.5,24.8333 74.5,31.1667 74.5,37.5C 77.8333,37.5 81.1667,37.5 84.5,37.5C 84.5,40.5 84.5,43.5 84.5,46.5C 90.8333,46.5 97.1667,46.5 103.5,46.5C 103.5,49.8333 103.5,53.1667 103.5,56.5C 97.1667,56.5 90.8333,56.5 84.5,56.5C 84.5,59.5 84.5,62.5 84.5,65.5C 81.1667,65.5 77.8333,65.5 74.5,65.5C 74.5,62.5 74.5,59.5 74.5,56.5C 74.5,53.1667 74.5,49.8333 74.5,46.5C 71.5,46.5 68.5,46.5 65.5,46.5C 65.5,37.1667 65.5,27.8333 65.5,18.5C 68.5,18.5 71.5,18.5 74.5,18.5 Z"/></g>
<g><path style="opacity:1" fill="#5a3405" d="M 74.5,18.5 C 77.8333,18.5 81.1667,18.5 84.5,18.5C 84.5,24.8333 84.5,31.1667 84.5,37.5C 81.1667,37.5 77.8333,37.5 74.5,37.5C 74.5,31.1667 74.5,24.8333 74.5,18.5 Z"/></g>
<g><path style="opacity:1" fill="#936427" d="M 121.5,28.5 C 121.5,31.5 121.5,34.5 121.5,37.5C 121.5,40.5 121.5,43.5 121.5,46.5C 115.5,46.5 109.5,46.5 103.5,46.5C 103.5,43.5 103.5,40.5 103.5,37.5C 106.5,37.5 109.5,37.5 112.5,37.5C 112.5,31.1667 112.5,24.8333 112.5,18.5C 115.5,18.5 118.5,18.5 121.5,18.5C 121.5,21.8333 121.5,25.1667 121.5,28.5 Z"/></g>
<g><path style="opacity:1" fill="#5a3405" d="M 121.5,28.5 C 124.833,28.5 128.167,28.5 131.5,28.5C 131.5,31.5 131.5,34.5 131.5,37.5C 128.167,37.5 124.833,37.5 121.5,37.5C 121.5,34.5 121.5,31.5 121.5,28.5 Z"/></g>
<g><path style="opacity:1" fill="#936427" d="M 46.5,46.5 C 43.5,46.5 40.5,46.5 37.5,46.5C 34.5,46.5 31.5,46.5 28.5,46.5C 28.5,43.5 28.5,40.5 28.5,37.5C 34.5,37.5 40.5,37.5 46.5,37.5C 46.5,40.5 46.5,43.5 46.5,46.5 Z"/></g>
<g><path style="opacity:1" fill="#5a3405" d="M 84.5,37.5 C 90.8333,37.5 97.1667,37.5 103.5,37.5C 103.5,40.5 103.5,43.5 103.5,46.5C 97.1667,46.5 90.8333,46.5 84.5,46.5C 84.5,43.5 84.5,40.5 84.5,37.5 Z"/></g>
<g><path style="opacity:1" fill="#5a3405" d="M 37.5,46.5 C 40.5,46.5 43.5,46.5 46.5,46.5C 46.5,49.8333 46.5,53.1667 46.5,56.5C 43.5,56.5 40.5,56.5 37.5,56.5C 37.5,53.1667 37.5,49.8333 37.5,46.5 Z"/></g>
<g><path style="opacity:1" fill="#936427" d="M 46.5,46.5 C 49.8333,46.5 53.1667,46.5 56.5,46.5C 56.5,49.8333 56.5,53.1667 56.5,56.5C 53.1667,56.5 49.8333,56.5 46.5,56.5C 46.5,53.1667 46.5,49.8333 46.5,46.5 Z"/></g>
<g><path style="opacity:1" fill="#5a3405" d="M 103.5,46.5 C 109.5,46.5 115.5,46.5 121.5,46.5C 121.5,49.8333 121.5,53.1667 121.5,56.5C 121.5,59.5 121.5,62.5 121.5,65.5C 118.5,65.5 115.5,65.5 112.5,65.5C 112.5,62.5 112.5,59.5 112.5,56.5C 109.5,56.5 106.5,56.5 103.5,56.5C 103.5,53.1667 103.5,49.8333 103.5,46.5 Z"/></g>
<g><path style="opacity:1" fill="#936427" d="M 121.5,46.5 C 124.833,46.5 128.167,46.5 131.5,46.5C 131.5,49.8333 131.5,53.1667 131.5,56.5C 128.167,56.5 124.833,56.5 121.5,56.5C 121.5,53.1667 121.5,49.8333 121.5,46.5 Z"/></g>
<g><path style="opacity:1" fill="#5a3405" d="M 46.5,56.5 C 49.8333,56.5 53.1667,56.5 56.5,56.5C 56.5,59.5 56.5,62.5 56.5,65.5C 53.1667,65.5 49.8333,65.5 46.5,65.5C 46.5,62.5 46.5,59.5 46.5,56.5 Z"/></g>
<g><path style="opacity:1" fill="#936427" d="M 56.5,56.5 C 59.5,56.5 62.5,56.5 65.5,56.5C 65.5,59.5 65.5,62.5 65.5,65.5C 62.5,65.5 59.5,65.5 56.5,65.5C 56.5,62.5 56.5,59.5 56.5,56.5 Z"/></g>
<g><path style="opacity:1" fill="#5a3405" d="M 65.5,56.5 C 68.5,56.5 71.5,56.5 74.5,56.5C 74.5,59.5 74.5,62.5 74.5,65.5C 71.5,65.5 68.5,65.5 65.5,65.5C 65.5,62.5 65.5,59.5 65.5,56.5 Z"/></g>
<g><path style="opacity:1" fill="#5a3405" d="M 103.5,56.5 C 103.5,59.5 103.5,62.5 103.5,65.5C 100.167,65.5 96.8333,65.5 93.5,65.5C 93.5,68.5 93.5,71.5 93.5,74.5C 90.5,74.5 87.5,74.5 84.5,74.5C 84.5,77.8333 84.5,81.1667 84.5,84.5C 81.1667,84.5 77.8333,84.5 74.5,84.5C 74.5,78.1667 74.5,71.8333 74.5,65.5C 77.8333,65.5 81.1667,65.5 84.5,65.5C 84.5,62.5 84.5,59.5 84.5,56.5C 90.8333,56.5 97.1667,56.5 103.5,56.5 Z"/></g>
<g><path style="opacity:1" fill="#5a3405" d="M 56.5,65.5 C 59.5,65.5 62.5,65.5 65.5,65.5C 65.5,68.5 65.5,71.5 65.5,74.5C 62.5,74.5 59.5,74.5 56.5,74.5C 56.5,71.5 56.5,68.5 56.5,65.5 Z"/></g>
<g><path style="opacity:1" fill="#936427" d="M 65.5,65.5 C 68.5,65.5 71.5,65.5 74.5,65.5C 74.5,71.8333 74.5,78.1667 74.5,84.5C 77.8333,84.5 81.1667,84.5 84.5,84.5C 84.5,106.167 84.5,127.833 84.5,149.5C 81.1667,149.5 77.8333,149.5 74.5,149.5C 74.5,146.5 74.5,143.5 74.5,140.5C 71.5,140.5 68.5,140.5 65.5,140.5C 65.5,134.167 65.5,127.833 65.5,121.5C 68.5,121.5 71.5,121.5 74.5,121.5C 74.5,118.5 74.5,115.5 74.5,112.5C 74.5,109.5 74.5,106.5 74.5,103.5C 71.5,103.5 68.5,103.5 65.5,103.5C 65.5,100.167 65.5,96.8333 65.5,93.5C 65.5,90.5 65.5,87.5 65.5,84.5C 62.5,84.5 59.5,84.5 56.5,84.5C 56.5,87.5 56.5,90.5 56.5,93.5C 47.1667,93.5 37.8333,93.5 28.5,93.5C 22.1667,93.5 15.8333,93.5 9.5,93.5C 9.5,90.5 9.5,87.5 9.5,84.5C 21.8333,84.5 34.1667,84.5 46.5,84.5C 46.5,81.1667 46.5,77.8333 46.5,74.5C 49.8333,74.5 53.1667,74.5 56.5,74.5C 59.5,74.5 62.5,74.5 65.5,74.5C 65.5,71.5 65.5,68.5 65.5,65.5 Z"/></g>
<g><path style="opacity:1" fill="#5a3405" d="M 112.5,84.5 C 109.5,84.5 106.5,84.5 103.5,84.5C 103.5,81.1667 103.5,77.8333 103.5,74.5C 106.5,74.5 109.5,74.5 112.5,74.5C 112.5,77.8333 112.5,81.1667 112.5,84.5 Z"/></g>
<g><path style="opacity:1" fill="#5a3405" d="M 65.5,93.5 C 62.5,93.5 59.5,93.5 56.5,93.5C 56.5,90.5 56.5,87.5 56.5,84.5C 59.5,84.5 62.5,84.5 65.5,84.5C 65.5,87.5 65.5,90.5 65.5,93.5 Z"/></g>
<g><path style="opacity:1" fill="#5a3405" d="M 84.5,84.5 C 87.5,84.5 90.5,84.5 93.5,84.5C 93.5,87.5 93.5,90.5 93.5,93.5C 96.8333,93.5 100.167,93.5 103.5,93.5C 103.5,99.8333 103.5,106.167 103.5,112.5C 100.167,112.5 96.8333,112.5 93.5,112.5C 93.5,124.833 93.5,137.167 93.5,149.5C 90.5,149.5 87.5,149.5 84.5,149.5C 84.5,127.833 84.5,106.167 84.5,84.5 Z"/></g>
<g><path style="opacity:1" fill="#936427" d="M 93.5,84.5 C 96.8333,84.5 100.167,84.5 103.5,84.5C 106.5,84.5 109.5,84.5 112.5,84.5C 118.833,84.5 125.167,84.5 131.5,84.5C 131.5,87.5 131.5,90.5 131.5,93.5C 125.167,93.5 118.833,93.5 112.5,93.5C 109.5,93.5 106.5,93.5 103.5,93.5C 100.167,93.5 96.8333,93.5 93.5,93.5C 93.5,90.5 93.5,87.5 93.5,84.5 Z"/></g>
<g><path style="opacity:1" fill="#5a3405" d="M 28.5,93.5 C 37.8333,93.5 47.1667,93.5 56.5,93.5C 56.5,96.8333 56.5,100.167 56.5,103.5C 53.1667,103.5 49.8333,103.5 46.5,103.5C 43.5,103.5 40.5,103.5 37.5,103.5C 34.5,103.5 31.5,103.5 28.5,103.5C 28.5,100.167 28.5,96.8333 28.5,93.5 Z"/></g>
<g><path style="opacity:1" fill="#5a3405" d="M 112.5,93.5 C 118.833,93.5 125.167,93.5 131.5,93.5C 131.5,96.8333 131.5,100.167 131.5,103.5C 125.167,103.5 118.833,103.5 112.5,103.5C 112.5,100.167 112.5,96.8333 112.5,93.5 Z"/></g>
<g><path style="opacity:1" fill="#936427" d="M 131.5,93.5 C 134.5,93.5 137.5,93.5 140.5,93.5C 140.5,99.8333 140.5,106.167 140.5,112.5C 137.5,112.5 134.5,112.5 131.5,112.5C 131.5,109.5 131.5,106.5 131.5,103.5C 131.5,100.167 131.5,96.8333 131.5,93.5 Z"/></g>
<g><path style="opacity:1" fill="#936427" d="M 37.5,103.5 C 40.5,103.5 43.5,103.5 46.5,103.5C 46.5,109.5 46.5,115.5 46.5,121.5C 43.5,121.5 40.5,121.5 37.5,121.5C 37.5,115.5 37.5,109.5 37.5,103.5 Z"/></g>
<g><path style="opacity:1" fill="#5a3405" d="M 74.5,112.5 C 74.5,115.5 74.5,118.5 74.5,121.5C 71.5,121.5 68.5,121.5 65.5,121.5C 65.5,118.5 65.5,115.5 65.5,112.5C 68.5,112.5 71.5,112.5 74.5,112.5 Z"/></g>
<g><path style="opacity:1" fill="#5a3405" d="M 65.5,140.5 C 68.5,140.5 71.5,140.5 74.5,140.5C 74.5,143.5 74.5,146.5 74.5,149.5C 71.5,149.5 68.5,149.5 65.5,149.5C 65.5,146.5 65.5,143.5 65.5,140.5 Z"/></g>
</svg>
